<svg width="512" height="512" viewBox="0 0 512 512" xmlns="http://www.w3.org/2000/svg">
<rect width="512" height="512" rx="115" fill="#1E2126"/>
<g transform="translate(102.4,102.4) scale(0.6144)">
<path fill-rule="evenodd" clip-rule="evenodd" d="M288.879 235.041L302.807 235.238C337.38 235.728 372.792 250.921 396.826 276.984C421.229 303.448 433.718 341.012 421.777 384.475L421.683 384.817L421.571 385.154C415.307 403.96 397.272 425.323 368.019 426.012C354.49 426.331 341.085 422.955 329.502 414C318.032 405.132 309.515 391.697 303.951 373.958L303.908 373.821L303.868 373.682C294.129 340.091 290.75 288.46 289.367 248.962L288.879 235.041ZM329.301 366.157C333.72 380.177 339.685 388.348 345.724 393.018C351.67 397.615 358.822 399.7 367.393 399.498C382.202 399.149 392.39 388.467 396.301 377.09C405.502 343.152 395.851 315.051 377.328 294.963C361.591 277.897 339.327 266.55 316.479 262.966C318.17 299.369 321.699 339.839 329.301 366.157Z" fill="#fff"/>
<path fill-rule="evenodd" clip-rule="evenodd" d="M280.616 387.096L287.75 399.054C297.513 415.415 300.623 436.344 295.325 455.212C289.88 474.604 275.55 491.598 251.587 498.593L251.247 498.693L250.902 498.774C239.379 501.479 222.304 499.119 212.392 483.848C208.034 477.134 205.411 469.042 206.374 459.993C207.322 451.085 211.587 442.713 218.303 434.974L218.397 434.865L218.494 434.758C230.872 421.106 252.643 405.71 269.023 394.81L280.616 387.096ZM238.235 452.457C234.09 457.264 232.96 460.705 232.737 462.798C232.528 464.765 232.971 466.857 234.631 469.414C235.81 471.231 237.309 472.228 239.024 472.77C240.811 473.334 242.828 473.378 244.548 473.027C258.941 468.695 266.701 459.082 269.8 448.045C271.773 441.017 271.851 433.34 270.255 426.095C257.7 434.966 245.502 444.477 238.235 452.457Z" fill="#fff"/>
<path fill-rule="evenodd" clip-rule="evenodd" d="M387.094 220.755L399.052 213.62C415.412 203.857 436.342 200.745 455.21 206.043C474.602 211.487 491.596 225.816 498.593 249.779L498.692 250.119L498.773 250.464C501.479 261.987 499.12 279.062 483.849 288.975C477.135 293.333 469.044 295.956 459.994 294.994C451.086 294.046 442.714 289.781 434.974 283.066L434.865 282.971L434.759 282.874C421.106 270.497 405.71 248.727 394.809 232.347L387.094 220.755ZM452.457 263.133C457.264 267.277 460.705 268.408 462.798 268.63C464.765 268.839 466.857 268.396 469.414 266.737C471.231 265.557 472.228 264.058 472.769 262.343C473.333 260.556 473.377 258.539 473.027 256.819C468.694 242.426 459.08 234.667 448.043 231.568C441.015 229.595 433.339 229.518 426.093 231.114C434.965 243.669 444.477 255.866 452.457 263.133Z" fill="#fff"/>
<path fill-rule="evenodd" clip-rule="evenodd" d="M267.623 293.502L266.819 307.409C264.825 341.927 248.104 376.644 221.019 399.52C193.518 422.748 155.446 433.589 112.543 419.768L112.206 419.659L111.875 419.533C93.3593 412.455 72.8019 393.507 73.3865 364.252C73.6569 350.722 77.6138 337.477 87.065 326.295C96.424 315.222 110.217 307.298 128.181 302.512L128.32 302.475L128.46 302.441C162.444 294.173 214.172 293.046 253.694 293.383L267.623 293.502ZM134.871 328.177C120.671 331.981 112.249 337.585 107.321 343.415C102.469 349.155 100.074 356.209 99.9032 364.782C99.6072 379.591 109.836 390.235 121.031 394.638C154.536 405.308 183.031 396.889 203.906 379.258C221.642 364.279 233.947 342.53 238.523 319.86C202.081 319.965 161.495 321.728 134.871 328.177Z" fill="#fff"/>
<path fill-rule="evenodd" clip-rule="evenodd" d="M210.862 264.7L196.933 264.503C162.361 264.013 126.949 248.82 102.915 222.757C78.512 196.293 66.0231 158.729 77.9635 115.266L78.0573 114.924L78.1695 114.588C84.4341 95.7813 102.469 74.4185 131.722 73.7287C145.251 73.4098 158.656 76.7861 170.239 85.7415C181.709 94.6095 190.226 108.044 195.789 125.783L195.833 125.92L195.873 126.059C205.612 159.65 208.991 211.281 210.374 250.779L210.862 264.7ZM170.44 133.584C166.021 119.564 160.056 111.393 154.017 106.724C148.071 102.126 140.919 100.041 132.347 100.243C117.539 100.592 107.351 111.274 103.44 122.651C94.2383 156.589 103.89 184.691 122.413 204.778C138.15 221.844 160.414 233.191 183.262 236.776C181.571 200.373 178.041 159.902 170.44 133.584Z" fill="#fff"/>
<path fill-rule="evenodd" clip-rule="evenodd" d="M219.125 112.645L211.99 100.687C202.228 84.3262 199.118 63.3966 204.416 44.5289C209.861 25.137 224.191 8.14324 248.154 1.14777L248.494 1.04855L248.839 0.967516C260.362 -1.73761 277.437 0.6216 287.349 15.8927C291.707 22.6072 294.33 30.6986 293.367 39.7482C292.419 48.6557 288.154 57.0282 281.438 64.7676L281.343 64.8764L281.247 64.9831C268.869 78.6355 247.098 94.0307 230.718 104.931L219.125 112.645ZM261.506 47.2843C265.651 42.4771 266.781 39.036 267.004 36.9428C267.213 34.976 266.77 32.8839 265.11 30.327C263.931 28.5097 262.432 27.513 260.717 26.9715C258.93 26.4074 256.913 26.3633 255.193 26.7136C240.8 31.0457 233.04 40.6593 229.941 51.6964C227.967 58.7244 227.89 66.4011 229.486 73.6464C242.041 64.7748 254.239 55.2642 261.506 47.2843Z" fill="#fff"/>
<path fill-rule="evenodd" clip-rule="evenodd" d="M112.646 278.986L100.689 286.122C84.3285 295.885 63.399 298.996 44.531 293.698C25.1389 288.254 8.14461 273.925 1.14817 249.962L1.04885 249.622L0.967863 249.277C-1.73772 237.754 0.620776 220.679 15.8915 210.766C22.6058 206.408 30.6971 203.785 39.7468 204.747C48.6544 205.695 57.027 209.96 64.7666 216.676L64.8754 216.77L64.9821 216.867C78.635 229.244 94.0311 251.014 104.932 267.394L112.646 278.986ZM47.2841 236.608C42.4768 232.464 39.0356 231.334 36.9424 231.111C34.9756 230.902 32.8835 231.345 30.3267 233.005C28.5094 234.184 27.5128 235.683 26.9714 237.398C26.4073 239.185 26.3634 241.202 26.7137 242.922C31.0464 257.315 40.6603 265.074 51.6975 268.173C58.7256 270.146 66.4022 270.223 73.6474 268.627C64.7754 256.072 55.2643 243.875 47.2841 236.608Z" fill="#fff"/>
<path fill-rule="evenodd" clip-rule="evenodd" d="M232.118 206.239L232.921 192.332C234.916 157.814 251.636 123.097 278.722 100.221C306.223 76.9932 344.295 66.1516 387.197 79.9731L387.535 80.0818L387.866 80.2083C406.382 87.2859 426.939 106.234 426.354 135.489C426.084 149.019 422.127 162.265 412.676 173.447C403.317 184.52 389.524 192.443 371.56 197.229L371.421 197.266L371.281 197.3C337.297 205.568 285.568 206.695 246.047 206.358L232.118 206.239ZM364.87 171.564C379.069 167.76 387.492 162.156 392.42 156.326C397.272 150.586 399.666 143.532 399.838 134.96C400.134 120.15 389.905 109.506 378.71 105.104C345.205 94.4333 316.709 102.852 295.835 120.483C278.099 135.462 265.794 157.211 261.218 179.881C297.66 179.776 338.246 178.013 364.87 171.564Z" fill="#fff"/>
</g>
</svg>
