<svg width="1600" height="500" viewBox="0 0 1600 500" fill="none" xmlns="http://www.w3.org/2000/svg">
<path fill-rule="evenodd" clip-rule="evenodd" d="M288.879 235.041L302.807 235.238C337.38 235.728 372.792 250.921 396.826 276.984C421.229 303.448 433.718 341.012 421.777 384.475L421.683 384.817L421.571 385.154C415.307 403.96 397.272 425.323 368.019 426.012C354.49 426.331 341.085 422.955 329.502 414C318.032 405.132 309.515 391.697 303.951 373.958L303.908 373.821L303.868 373.682C294.129 340.091 290.75 288.46 289.367 248.962L288.879 235.041ZM329.301 366.157C333.72 380.177 339.685 388.348 345.724 393.018C351.67 397.615 358.822 399.7 367.393 399.498C382.202 399.149 392.39 388.467 396.301 377.09C405.502 343.152 395.851 315.051 377.328 294.963C361.591 277.897 339.327 266.55 316.479 262.966C318.17 299.369 321.699 339.839 329.301 366.157Z" fill="currentColor"/>
<path fill-rule="evenodd" clip-rule="evenodd" d="M280.616 387.096L287.75 399.054C297.513 415.415 300.623 436.344 295.325 455.212C289.88 474.604 275.55 491.598 251.587 498.593L251.247 498.693L250.902 498.774C239.379 501.479 222.304 499.119 212.392 483.848C208.034 477.134 205.411 469.042 206.374 459.993C207.322 451.085 211.587 442.713 218.303 434.974L218.397 434.865L218.494 434.758C230.872 421.106 252.643 405.71 269.023 394.81L280.616 387.096ZM238.235 452.457C234.09 457.264 232.96 460.705 232.737 462.798C232.528 464.765 232.971 466.857 234.631 469.414C235.81 471.231 237.309 472.228 239.024 472.77C240.811 473.334 242.828 473.378 244.548 473.027C258.941 468.695 266.701 459.082 269.8 448.045C271.773 441.017 271.851 433.34 270.255 426.095C257.7 434.966 245.502 444.477 238.235 452.457Z" fill="currentColor"/>
<path fill-rule="evenodd" clip-rule="evenodd" d="M387.094 220.755L399.052 213.62C415.412 203.857 436.342 200.745 455.21 206.043C474.602 211.487 491.596 225.816 498.593 249.779L498.692 250.119L498.773 250.464C501.479 261.987 499.12 279.062 483.849 288.975C477.135 293.333 469.044 295.956 459.994 294.994C451.086 294.046 442.714 289.781 434.974 283.066L434.865 282.971L434.759 282.874C421.106 270.497 405.71 248.727 394.809 232.347L387.094 220.755ZM452.457 263.133C457.264 267.277 460.705 268.408 462.798 268.63C464.765 268.839 466.857 268.396 469.414 266.737C471.231 265.557 472.228 264.058 472.769 262.343C473.333 260.556 473.377 258.539 473.027 256.819C468.694 242.426 459.08 234.667 448.043 231.568C441.015 229.595 433.339 229.518 426.093 231.114C434.965 243.669 444.477 255.866 452.457 263.133Z" fill="currentColor"/>
<path fill-rule="evenodd" clip-rule="evenodd" d="M267.623 293.502L266.819 307.409C264.825 341.927 248.104 376.644 221.019 399.52C193.518 422.748 155.446 433.589 112.543 419.768L112.206 419.659L111.875 419.533C93.3593 412.455 72.8019 393.507 73.3865 364.252C73.6569 350.722 77.6138 337.477 87.065 326.295C96.424 315.222 110.217 307.298 128.181 302.512L128.32 302.475L128.46 302.441C162.444 294.173 214.172 293.046 253.694 293.383L267.623 293.502ZM134.871 328.177C120.671 331.981 112.249 337.585 107.321 343.415C102.469 349.155 100.074 356.209 99.9032 364.782C99.6072 379.591 109.836 390.235 121.031 394.638C154.536 405.308 183.031 396.889 203.906 379.258C221.642 364.279 233.947 342.53 238.523 319.86C202.081 319.965 161.495 321.728 134.871 328.177Z" fill="currentColor"/>
<path fill-rule="evenodd" clip-rule="evenodd" d="M210.862 264.7L196.933 264.503C162.361 264.013 126.949 248.82 102.915 222.757C78.512 196.293 66.0231 158.729 77.9635 115.266L78.0573 114.924L78.1695 114.588C84.4341 95.7813 102.469 74.4185 131.722 73.7287C145.251 73.4098 158.656 76.7861 170.239 85.7415C181.709 94.6095 190.226 108.044 195.789 125.783L195.833 125.92L195.873 126.059C205.612 159.65 208.991 211.281 210.374 250.779L210.862 264.7ZM170.44 133.584C166.021 119.564 160.056 111.393 154.017 106.724C148.071 102.126 140.919 100.041 132.347 100.243C117.539 100.592 107.351 111.274 103.44 122.651C94.2383 156.589 103.89 184.691 122.413 204.778C138.15 221.844 160.414 233.191 183.262 236.776C181.571 200.373 178.041 159.902 170.44 133.584Z" fill="currentColor"/>
<path fill-rule="evenodd" clip-rule="evenodd" d="M219.125 112.645L211.99 100.687C202.228 84.3262 199.118 63.3966 204.416 44.5289C209.861 25.137 224.191 8.14324 248.154 1.14777L248.494 1.04855L248.839 0.967516C260.362 -1.73761 277.437 0.6216 287.349 15.8927C291.707 22.6072 294.33 30.6986 293.367 39.7482C292.419 48.6557 288.154 57.0282 281.438 64.7676L281.343 64.8764L281.247 64.9831C268.869 78.6355 247.098 94.0307 230.718 104.931L219.125 112.645ZM261.506 47.2843C265.651 42.4771 266.781 39.036 267.004 36.9428C267.213 34.976 266.77 32.8839 265.11 30.327C263.931 28.5097 262.432 27.513 260.717 26.9715C258.93 26.4074 256.913 26.3633 255.193 26.7136C240.8 31.0457 233.04 40.6593 229.941 51.6964C227.967 58.7244 227.89 66.4011 229.486 73.6464C242.041 64.7748 254.239 55.2642 261.506 47.2843Z" fill="currentColor"/>
<path fill-rule="evenodd" clip-rule="evenodd" d="M112.646 278.986L100.689 286.122C84.3285 295.885 63.399 298.996 44.531 293.698C25.1389 288.254 8.14461 273.925 1.14817 249.962L1.04885 249.622L0.967863 249.277C-1.73772 237.754 0.620776 220.679 15.8915 210.766C22.6058 206.408 30.6971 203.785 39.7468 204.747C48.6544 205.695 57.027 209.96 64.7666 216.676L64.8754 216.77L64.9821 216.867C78.635 229.244 94.0311 251.014 104.932 267.394L112.646 278.986ZM47.2841 236.608C42.4768 232.464 39.0356 231.334 36.9424 231.111C34.9756 230.902 32.8835 231.345 30.3267 233.005C28.5094 234.184 27.5128 235.683 26.9714 237.398C26.4073 239.185 26.3634 241.202 26.7137 242.922C31.0464 257.315 40.6603 265.074 51.6975 268.173C58.7256 270.146 66.4022 270.223 73.6474 268.627C64.7754 256.072 55.2643 243.875 47.2841 236.608Z" fill="currentColor"/>
<path fill-rule="evenodd" clip-rule="evenodd" d="M232.118 206.239L232.921 192.332C234.916 157.814 251.636 123.097 278.722 100.221C306.223 76.9932 344.295 66.1516 387.197 79.9731L387.535 80.0818L387.866 80.2083C406.382 87.2859 426.939 106.234 426.354 135.489C426.084 149.019 422.127 162.265 412.676 173.447C403.317 184.52 389.524 192.443 371.56 197.229L371.421 197.266L371.281 197.3C337.297 205.568 285.568 206.695 246.047 206.358L232.118 206.239ZM364.87 171.564C379.069 167.76 387.492 162.156 392.42 156.326C397.272 150.586 399.666 143.532 399.838 134.96C400.134 120.15 389.905 109.506 378.71 105.104C345.205 94.4333 316.709 102.852 295.835 120.483C278.099 135.462 265.794 157.211 261.218 179.881C297.66 179.776 338.246 178.013 364.87 171.564Z" fill="currentColor"/>
<path fill-rule="evenodd" clip-rule="evenodd" d="M1457.33 304.282L1457.32 304.272C1440.3 287.501 1431.89 264.75 1431.89 236.277C1431.89 218.021 1435.54 201.86 1442.92 187.853L1442.92 187.841C1450.52 173.62 1460.97 162.546 1474.26 154.673C1487.56 146.791 1502.79 142.877 1519.9 142.877C1544.59 142.877 1564.25 150.845 1578.62 166.939C1592.76 182.545 1599.8 203.923 1600 230.809C1600.01 232.144 1599.44 233.416 1598.45 234.301L1586.37 245.115C1585.51 245.879 1584.41 246.301 1583.26 246.301H1471.96C1471.71 246.301 1471.55 246.511 1471.57 246.707C1473.23 263.664 1478.73 276.073 1487.83 284.262C1496.92 292.453 1509.91 296.692 1527.09 296.692C1536.93 296.692 1546.53 295.17 1555.9 292.124L1555.92 292.12C1563.9 289.588 1571.5 285.665 1578.71 280.334C1581.74 278.088 1586.35 280.103 1586.35 284.11V310.168C1586.35 311.819 1585.47 313.347 1584.05 314.182C1576.53 318.607 1575.12 319.118 1565.51 322.607L1565.15 322.734L1565.12 322.745C1552.46 326.885 1539.66 328.959 1526.73 328.959C1497.57 328.959 1474.35 320.808 1457.33 304.282ZM1552.8 185.555C1545.37 176.995 1534.98 172.628 1521.34 172.628C1506.72 172.628 1495.33 177.134 1486.94 185.984C1478.97 194.382 1473.86 205.469 1471.71 219.379C1471.69 219.56 1471.83 219.785 1472.1 219.785H1564.68C1564.94 219.785 1565.09 219.581 1565.08 219.397C1564.04 204.696 1559.89 193.501 1552.82 185.576L1552.8 185.555Z" fill="currentColor"/>
<path fill-rule="evenodd" clip-rule="evenodd" d="M1435.33 142.522L1442.45 142.091C1446.17 141.865 1448.64 145.884 1446.75 149.099L1430.41 176.934C1429.65 178.233 1428.32 179.059 1426.87 179.219C1411.68 180.9 1400.59 185.717 1393.3 193.419C1386.02 201.102 1382.25 211.937 1382.25 226.215V321.066C1382.25 323.639 1380.17 325.725 1377.59 325.725H1346.02C1343.45 325.725 1341.36 323.639 1341.36 321.066V150.77C1341.36 148.197 1343.45 146.111 1346.02 146.111H1376.16C1378.73 146.111 1380.82 148.197 1380.82 150.77V154.948C1380.82 154.982 1380.82 155.062 1380.97 155.212C1381.14 155.383 1381.45 155.579 1381.89 155.707C1382.88 155.997 1383.62 155.734 1383.84 155.511C1389.48 149.797 1396.75 147.066 1405.32 145.496C1411.75 144.316 1419.13 143.762 1427.27 143.151C1429.87 142.955 1432.55 142.754 1435.3 142.524L1435.33 142.522Z" fill="currentColor"/>
<path fill-rule="evenodd" clip-rule="evenodd" d="M1177.05 301.452L1177.04 301.434C1171.28 292.921 1168.41 283.279 1168.41 272.575C1168.41 259.289 1171.73 248.557 1178.63 240.637L1178.65 240.622L1178.66 240.608C1185.78 232.721 1197.17 227.189 1212.47 223.788L1212.48 223.787C1227.85 220.424 1248.34 218.744 1273.88 218.707C1273.98 218.707 1274.07 218.674 1274.14 218.619L1284.68 210.561C1284.79 210.477 1284.84 210.359 1284.84 210.252C1284.67 197.471 1281.84 188.715 1276.81 183.477C1271.64 178.092 1262.88 175.144 1249.95 175.144C1240.11 175.144 1230.26 176.666 1220.39 179.721L1220.37 179.728L1220.34 179.734C1211.71 182.199 1202.87 186.025 1193.81 191.23C1190.73 193.005 1186.74 190.841 1186.74 187.173V163.556C1186.74 162.04 1187.48 160.631 1188.69 159.759C1189.51 159.17 1190.26 158.62 1190.97 158.105C1193.64 156.153 1195.64 154.698 1198.02 153.441C1201.06 151.831 1204.71 150.55 1211.28 148.705C1225.1 144.827 1238.35 142.877 1251.03 142.877C1275.28 142.877 1293.65 148.693 1305.71 160.739C1317.77 172.561 1323.58 190.955 1323.58 215.433V321.066C1323.58 323.639 1321.5 325.725 1318.93 325.725H1289.87C1287.29 325.725 1285.21 323.639 1285.21 321.066V313.346L1285.21 313.34L1285.21 313.336C1285.21 313.336 1285.2 313.324 1285.2 313.312C1285.2 313.307 1285.19 313.301 1285.19 313.295C1285.17 313.247 1285.11 313.16 1284.99 313.045C1284.75 312.803 1284.32 312.538 1283.74 312.343C1283.17 312.152 1282.57 312.066 1282.06 312.092C1281.52 312.118 1281.23 312.253 1281.12 312.337C1279.23 313.741 1277.19 314.918 1275.08 316.097C1274.77 316.273 1274.45 316.449 1274.13 316.627C1272.29 317.652 1270.37 318.717 1268.33 320.007C1258.83 326.007 1247.52 328.959 1234.5 328.959C1222 328.959 1210.76 326.506 1200.85 321.548C1190.97 316.612 1183.03 309.921 1177.06 301.469L1177.05 301.452ZM1214.03 255.786L1214.03 255.789C1210.48 259.129 1208.58 263.903 1208.58 270.419C1208.58 278.973 1211.48 285.814 1217.23 291.129C1222.96 296.189 1231.02 298.849 1241.68 298.849C1254.06 298.849 1264.28 294.521 1272.49 285.853C1280.7 277.186 1284.85 266.227 1284.85 252.809V245.647C1284.85 245.413 1284.66 245.223 1284.43 245.223H1275.11C1257.67 245.223 1244.02 246.061 1234.13 247.709C1224.47 249.359 1217.89 252.136 1214.03 255.786Z" fill="currentColor"/>
<path fill-rule="evenodd" clip-rule="evenodd" d="M818.965 301.628L818.953 301.611C813.194 293.097 810.323 283.456 810.323 272.752C810.323 259.466 813.649 248.733 820.547 240.813L820.56 240.799L820.573 240.785C827.697 232.898 839.084 227.366 854.389 223.965L854.396 223.963C869.769 220.6 890.256 218.921 915.795 218.884C915.894 218.883 915.988 218.85 916.059 218.796L926.597 210.737C926.706 210.654 926.757 210.536 926.755 210.429C926.586 197.647 923.757 188.892 918.728 183.654C913.559 178.269 904.794 175.32 891.864 175.32C882.024 175.32 872.172 176.843 862.302 179.897L862.28 179.904L862.258 179.911C853.629 182.376 844.786 186.201 835.728 191.407C832.64 193.182 828.652 191.017 828.652 187.35V163.733C828.652 162.217 829.393 160.807 830.605 159.936C831.425 159.346 832.178 158.797 832.884 158.282C835.559 156.33 837.554 154.874 839.932 153.618C842.979 152.008 846.626 150.726 853.198 148.882C867.015 145.003 880.266 143.053 892.943 143.053C917.193 143.053 935.569 148.869 947.621 160.916C959.688 172.738 965.499 191.131 965.499 215.61V321.243C965.499 323.816 963.414 325.902 960.841 325.902H931.781C929.208 325.902 927.123 323.816 927.123 321.243V313.523L927.122 313.517L927.121 313.512C927.121 313.512 927.118 313.501 927.113 313.488C927.111 313.483 927.109 313.477 927.105 313.471C927.083 313.424 927.028 313.337 926.909 313.221C926.659 312.979 926.231 312.714 925.655 312.52C925.088 312.328 924.488 312.243 923.971 312.268C923.435 312.295 923.143 312.429 923.031 312.513C921.149 313.918 919.106 315.095 916.996 316.274C916.681 316.45 916.365 316.626 916.046 316.803C914.203 317.829 912.289 318.893 910.246 320.184C900.746 326.183 889.437 329.136 876.411 329.136C863.91 329.136 852.677 326.683 842.76 321.725C832.888 316.789 824.943 310.098 818.977 301.645L818.965 301.628ZM855.943 255.963L855.94 255.965C852.391 259.305 850.497 264.08 850.497 270.595C850.497 279.149 853.394 285.991 859.143 291.306C864.873 296.366 872.934 299.025 883.599 299.025C895.976 299.025 906.195 294.697 914.406 286.03C922.617 277.363 926.763 266.403 926.763 252.986V245.823C926.763 245.589 926.574 245.4 926.34 245.4H917.021C899.581 245.4 885.939 246.237 876.044 247.886C866.385 249.536 859.807 252.312 855.943 255.963Z" fill="currentColor"/>
<path fill-rule="evenodd" clip-rule="evenodd" d="M1016.52 317.853L1016.5 317.84C1004.64 310.177 995.402 299.316 988.782 285.342C982.151 271.343 978.875 254.847 978.875 235.918C978.875 216.994 982.15 200.614 988.785 186.848C995.405 172.876 1004.64 162.018 1016.5 154.356C1028.39 146.679 1042.34 142.877 1058.26 142.877C1071.76 142.877 1083.86 145.824 1094.51 151.771C1101.72 155.793 1107.71 160.804 1112.46 166.813C1112.61 167.004 1113.04 167.217 1113.68 167.035C1113.96 166.954 1114.15 166.82 1114.25 166.707C1114.34 166.616 1114.36 166.542 1114.36 166.444V72.7837C1114.36 70.2108 1116.45 68.1251 1119.02 68.1251H1150.24C1152.81 68.1251 1154.89 70.2108 1154.89 72.7837V321.067C1154.89 323.64 1152.81 325.725 1150.24 325.725H1119.74C1117.17 325.725 1115.08 323.64 1115.08 321.067V304.284C1115.08 304.191 1115.06 304.118 1114.97 304.022C1114.86 303.904 1114.65 303.765 1114.35 303.682C1113.67 303.496 1113.23 303.732 1113.09 303.921C1108.3 310.269 1102.23 315.525 1094.89 319.694C1084.23 325.89 1072 328.96 1058.26 328.96C1042.58 328.96 1028.65 325.281 1016.54 317.867L1016.52 317.853ZM1101.92 190.924C1093.25 180.647 1081.87 175.503 1067.6 175.503C1053.08 175.503 1041.6 180.656 1032.92 190.924L1032.91 190.942C1024.26 200.955 1019.77 215.832 1019.77 235.918C1019.77 256 1024.26 271.011 1032.92 281.272C1041.6 291.54 1053.08 296.693 1067.6 296.693C1081.87 296.693 1093.25 291.549 1101.92 281.272C1110.59 271.011 1115.08 256 1115.08 235.918C1115.08 215.832 1110.59 200.955 1101.94 190.942L1101.92 190.924Z" fill="currentColor"/>
<path fill-rule="evenodd" clip-rule="evenodd" d="M776.114 307.284L776.111 307.287C760.756 319.67 739.499 325.725 712.608 325.725H605.178C602.605 325.725 600.52 323.639 600.52 321.067V72.7836C600.52 70.2107 602.605 68.125 605.178 68.125H708.296C734.929 68.125 755.832 74.0527 770.715 86.2C785.897 98.1531 793.431 114.972 793.431 136.369C793.431 150.418 789.726 162.609 782.241 172.839C776.345 180.897 768.74 187.235 759.463 191.852C759.274 191.946 759.038 192.228 759.064 192.761C759.09 193.293 759.35 193.541 759.541 193.612C770.824 197.834 779.956 204.304 786.865 213.042C795.363 223.79 799.54 237.339 799.54 253.528C799.54 276.574 791.787 294.596 776.114 307.284ZM641.116 178.815H702.546C719.818 178.815 732.383 175.433 740.595 169.021C748.707 162.687 752.898 153.134 752.898 139.963C752.898 126.792 748.707 117.239 740.595 110.905C732.383 104.492 719.818 101.111 702.546 101.111H641.116C640.883 101.111 640.693 101.3 640.693 101.534V178.391C640.693 178.625 640.883 178.815 641.116 178.815ZM641.116 292.739H708.296C725.675 292.739 738.316 289.213 746.585 282.519C754.769 275.895 759.007 265.887 759.007 252.09C759.007 238.42 754.773 228.503 746.592 221.936C738.323 215.298 725.678 211.801 708.296 211.801H641.116C640.883 211.801 640.693 211.99 640.693 212.224V292.316C640.693 292.55 640.883 292.739 641.116 292.739Z" fill="currentColor"/>
<path d="M1129.28 441.465C1125.98 441.465 1123.2 440.869 1120.95 439.677C1118.73 438.485 1117.06 436.901 1115.95 434.923C1114.84 432.945 1114.29 430.792 1114.29 428.462C1114.29 426.078 1114.76 424.046 1115.71 422.366C1116.68 420.66 1118 419.264 1119.65 418.181C1121.33 417.097 1123.27 416.271 1125.46 415.702C1127.68 415.16 1130.13 414.686 1132.82 414.28C1135.52 413.846 1138.17 413.48 1140.74 413.182C1143.34 412.857 1145.62 412.546 1147.57 412.248L1145.45 413.548C1145.53 409.213 1144.7 406.003 1142.93 403.917C1141.17 401.831 1138.11 400.788 1133.75 400.788C1130.74 400.788 1128.2 401.465 1126.11 402.82C1124.05 404.175 1122.6 406.315 1121.76 409.241L1115.95 407.534C1116.95 403.606 1118.97 400.558 1122.01 398.391C1125.04 396.223 1128.98 395.14 1133.83 395.14C1137.84 395.14 1141.24 395.898 1144.03 397.415C1146.85 398.905 1148.84 401.073 1150 403.917C1150.55 405.19 1150.9 406.613 1151.06 408.184C1151.22 409.755 1151.31 411.354 1151.31 412.979V440.246H1145.98V429.234L1147.53 429.884C1146.04 433.65 1143.72 436.521 1140.58 438.499C1137.43 440.477 1133.67 441.465 1129.28 441.465ZM1129.97 436.305C1132.76 436.305 1135.2 435.803 1137.29 434.801C1139.37 433.799 1141.05 432.431 1142.32 430.697C1143.6 428.936 1144.42 426.958 1144.8 424.764C1145.13 423.355 1145.3 421.811 1145.33 420.131C1145.36 418.424 1145.37 417.151 1145.37 416.311L1147.65 417.49C1145.62 417.761 1143.41 418.032 1141.02 418.303C1138.67 418.573 1136.34 418.885 1134.03 419.237C1131.76 419.589 1129.7 420.009 1127.86 420.497C1126.61 420.849 1125.41 421.35 1124.24 422.001C1123.08 422.624 1122.11 423.463 1121.36 424.52C1120.62 425.577 1120.26 426.89 1120.26 428.462C1120.26 429.735 1120.57 430.968 1121.19 432.16C1121.84 433.352 1122.87 434.341 1124.28 435.126C1125.72 435.912 1127.61 436.305 1129.97 436.305Z" fill="currentColor"/>
<path d="M1092.6 441.465C1088.18 441.465 1084.45 440.477 1081.38 438.499C1078.32 436.521 1075.99 433.799 1074.4 430.331C1072.82 426.836 1072.01 422.827 1071.96 418.303C1072.01 413.697 1072.85 409.66 1074.48 406.193C1076.1 402.698 1078.45 399.989 1081.51 398.065C1084.57 396.115 1088.28 395.14 1092.64 395.14C1097.08 395.14 1100.94 396.223 1104.22 398.391C1107.53 400.558 1109.79 403.524 1111.01 407.29L1105.16 409.159C1104.13 406.531 1102.49 404.5 1100.24 403.064C1098.02 401.601 1095.47 400.869 1092.6 400.869C1089.38 400.869 1086.71 401.614 1084.6 403.104C1082.48 404.567 1080.91 406.613 1079.88 409.241C1078.85 411.868 1078.32 414.889 1078.3 418.303C1078.35 423.558 1079.57 427.784 1081.95 430.981C1084.34 434.151 1087.89 435.736 1092.6 435.736C1095.58 435.736 1098.11 435.058 1100.2 433.704C1102.31 432.322 1103.91 430.317 1104.99 427.69L1111.01 429.478C1109.38 433.379 1107 436.359 1103.86 438.418C1100.71 440.45 1096.96 441.465 1092.6 441.465Z" fill="currentColor"/>
<path d="M1058.68 388.028V381.323H1064.65V388.028H1058.68ZM1058.68 440.246V396.359H1064.65V440.246H1058.68Z" fill="currentColor"/>
<path d="M1043.75 440.247V417.856C1043.75 415.418 1043.51 413.183 1043.05 411.151C1042.59 409.092 1041.85 407.304 1040.82 405.787C1039.82 404.242 1038.5 403.05 1036.88 402.211C1035.28 401.371 1033.33 400.951 1031.03 400.951C1028.91 400.951 1027.04 401.317 1025.42 402.048C1023.82 402.78 1022.46 403.836 1021.35 405.218C1020.27 406.572 1019.44 408.225 1018.88 410.175C1018.31 412.126 1018.02 414.347 1018.02 416.84L1013.8 415.905C1013.8 411.408 1014.58 407.629 1016.15 404.568C1017.72 401.506 1019.89 399.19 1022.65 397.619C1025.42 396.047 1028.59 395.262 1032.16 395.262C1034.79 395.262 1037.08 395.668 1039.03 396.481C1041.01 397.294 1042.67 398.391 1044.03 399.772C1045.41 401.154 1046.52 402.739 1047.36 404.527C1048.2 406.288 1048.81 408.171 1049.19 410.175C1049.57 412.153 1049.76 414.131 1049.76 416.108V440.247H1043.75ZM1012.01 440.247V396.359H1017.41V407.168H1018.02V440.247H1012.01Z" fill="currentColor"/>
<path d="M1001.98 389.451H996.856L1001.69 376.854H1006.81L1001.98 389.451ZM996.328 440.247V396.359H1002.3V440.247H996.328Z" fill="currentColor"/>
<path d="M979.797 440.247V380.511H985.77V440.247H979.797Z" fill="currentColor"/>
<path d="M946.938 441.466C941.114 441.466 936.197 440.179 932.187 437.605C928.178 435.005 925.143 431.415 923.084 426.837C921.026 422.258 919.996 416.975 919.996 410.988C919.996 405.001 921.026 399.718 923.084 395.14C925.143 390.562 928.178 386.986 932.187 384.412C936.197 381.811 941.114 380.511 946.938 380.511C953.738 380.511 959.292 382.258 963.599 385.753C967.907 389.221 970.86 393.88 972.458 399.732L966.363 401.317C965.116 396.684 962.881 393.013 959.658 390.304C956.434 387.595 952.194 386.241 946.938 386.241C942.36 386.241 938.554 387.284 935.519 389.37C932.485 391.456 930.196 394.368 928.652 398.106C927.135 401.818 926.349 406.112 926.295 410.988C926.268 415.865 927.013 420.159 928.53 423.87C930.074 427.582 932.377 430.494 935.438 432.607C938.526 434.693 942.36 435.736 946.938 435.736C952.194 435.736 956.434 434.381 959.658 431.672C962.881 428.936 965.116 425.265 966.363 420.66L972.458 422.245C970.86 428.096 967.907 432.77 963.599 436.264C959.292 439.732 953.738 441.466 946.938 441.466Z" fill="currentColor"/>
<path d="M882.082 441.465C877.72 441.465 873.995 440.477 870.907 438.499C867.818 436.521 865.448 433.785 863.795 430.29C862.143 426.796 861.316 422.786 861.316 418.262C861.316 413.656 862.156 409.62 863.836 406.152C865.516 402.685 867.9 399.989 870.988 398.065C874.103 396.115 877.801 395.14 882.082 395.14C886.471 395.14 890.209 396.128 893.297 398.106C896.413 400.057 898.783 402.779 900.409 406.274C902.061 409.742 902.888 413.738 902.888 418.262C902.888 422.867 902.061 426.918 900.409 430.412C898.756 433.88 896.372 436.589 893.257 438.54C890.141 440.49 886.416 441.465 882.082 441.465ZM882.082 435.736C886.958 435.736 890.588 434.124 892.972 430.9C895.356 427.649 896.548 423.436 896.548 418.262C896.548 412.952 895.343 408.726 892.932 405.583C890.548 402.441 886.931 400.869 882.082 400.869C878.804 400.869 876.095 401.614 873.954 403.104C871.841 404.567 870.256 406.613 869.2 409.241C868.17 411.841 867.656 414.848 867.656 418.262C867.656 423.545 868.875 427.784 871.313 430.981C873.751 434.151 877.341 435.736 882.082 435.736Z" fill="currentColor"/>
<path d="M845.048 389.369C843.91 389.369 842.8 389.139 841.716 388.679C840.632 388.218 839.576 387.69 838.546 387.094C837.544 386.471 836.582 385.929 835.661 385.468C834.767 385.008 833.914 384.778 833.101 384.778C832.072 384.778 831.408 385.197 831.11 386.037C830.812 386.85 830.812 387.73 831.11 388.679H826.884C826.288 386.268 826.531 384.222 827.615 382.543C828.699 380.836 830.433 379.982 832.817 379.982C833.982 379.982 835.106 380.213 836.189 380.673C837.273 381.134 838.316 381.676 839.318 382.299C840.348 382.895 841.323 383.423 842.244 383.884C843.165 384.344 844.019 384.574 844.804 384.574C845.78 384.574 846.443 384.168 846.796 383.355C847.148 382.543 847.161 381.608 846.836 380.551H851.062C851.658 382.935 851.415 385.008 850.331 386.769C849.247 388.503 847.486 389.369 845.048 389.369ZM833.589 441.466C830.284 441.466 827.507 440.87 825.258 439.678C823.037 438.486 821.371 436.901 820.26 434.923C819.149 432.946 818.594 430.792 818.594 428.462C818.594 426.078 819.068 424.046 820.016 422.367C820.991 420.66 822.305 419.265 823.958 418.181C825.637 417.097 827.574 416.271 829.769 415.702C831.99 415.16 834.442 414.686 837.124 414.28C839.833 413.846 842.475 413.481 845.048 413.183C847.649 412.858 849.925 412.546 851.875 412.248L849.762 413.548C849.843 409.214 849.004 406.003 847.243 403.917C845.482 401.831 842.42 400.788 838.059 400.788C835.052 400.788 832.505 401.466 830.419 402.82C828.36 404.175 826.911 406.315 826.071 409.241L820.26 407.534C821.262 403.606 823.281 400.558 826.315 398.391C829.349 396.224 833.291 395.14 838.14 395.14C842.15 395.14 845.549 395.898 848.34 397.416C851.157 398.906 853.148 401.073 854.313 403.917C854.855 405.191 855.207 406.613 855.37 408.184C855.533 409.756 855.614 411.354 855.614 412.979V440.247H850.29V429.234L851.835 429.884C850.345 433.65 848.028 436.522 844.886 438.499C841.743 440.477 837.977 441.466 833.589 441.466ZM834.28 436.305C837.07 436.305 839.508 435.804 841.594 434.801C843.68 433.799 845.36 432.431 846.633 430.697C847.906 428.936 848.733 426.958 849.112 424.764C849.437 423.355 849.613 421.811 849.64 420.131C849.667 418.425 849.681 417.151 849.681 416.312L851.956 417.49C849.925 417.761 847.717 418.032 845.333 418.303C842.976 418.574 840.646 418.885 838.343 419.237C836.068 419.59 834.009 420.01 832.166 420.497C830.92 420.849 829.715 421.351 828.55 422.001C827.385 422.624 826.423 423.464 825.665 424.52C824.933 425.577 824.567 426.891 824.567 428.462C824.567 429.735 824.879 430.968 825.502 432.16C826.152 433.352 827.182 434.341 828.59 435.126C830.026 435.912 831.923 436.305 834.28 436.305Z" fill="currentColor"/>
<path d="M794.922 459.752C793.947 459.752 793.025 459.63 792.158 459.386C791.319 459.142 790.519 458.844 789.761 458.492L791.305 454.347C792.551 454.835 793.594 455.079 794.434 455.079C795.491 455.079 796.303 454.74 796.872 454.063C797.468 453.413 797.766 452.695 797.766 451.909C797.766 450.663 797.211 449.755 796.1 449.186C794.99 448.645 793.743 448.171 792.362 447.764L795.369 439.393H799.798L797.726 445.082C799.189 445.732 800.367 446.613 801.261 447.724C802.182 448.861 802.643 450.311 802.643 452.072C802.643 454.266 801.871 456.095 800.326 457.558C798.809 459.021 797.008 459.752 794.922 459.752ZM796.913 441.465C792.497 441.465 788.759 440.477 785.697 438.499C782.636 436.521 780.306 433.799 778.708 430.331C777.136 426.836 776.324 422.827 776.27 418.303C776.324 413.697 777.164 409.66 778.789 406.193C780.414 402.698 782.758 399.989 785.819 398.065C788.88 396.115 792.592 395.14 796.954 395.14C801.397 395.14 805.257 396.223 808.535 398.391C811.84 400.558 814.102 403.524 815.321 407.29L809.47 409.159C808.44 406.531 806.801 404.5 804.553 403.064C802.331 401.601 799.785 400.869 796.913 400.869C793.689 400.869 791.021 401.614 788.908 403.104C786.794 404.567 785.223 406.613 784.194 409.241C783.164 411.868 782.636 414.889 782.609 418.303C782.663 423.558 783.882 427.784 786.266 430.981C788.65 434.151 792.199 435.736 796.913 435.736C799.893 435.736 802.426 435.058 804.512 433.704C806.625 432.322 808.224 430.317 809.307 427.69L815.321 429.478C813.696 433.379 811.312 436.359 808.169 438.418C805.027 440.45 801.275 441.465 796.913 441.465Z" fill="currentColor"/>
<path d="M762.988 388.028V381.323H768.962V388.028H762.988ZM762.988 440.246V396.359H768.962V440.246H762.988Z" fill="currentColor"/>
<path d="M735.328 440.247V396.359H740.692V406.924L739.636 405.543C740.123 404.242 740.76 403.05 741.546 401.967C742.331 400.856 743.185 399.948 744.106 399.244C745.243 398.242 746.571 397.483 748.088 396.968C749.605 396.427 751.136 396.115 752.68 396.034C754.224 395.925 755.633 396.034 756.906 396.359V401.967C755.308 401.56 753.56 401.466 751.664 401.682C749.768 401.899 748.02 402.658 746.422 403.958C744.959 405.096 743.862 406.464 743.13 408.062C742.399 409.634 741.911 411.313 741.667 413.101C741.424 414.862 741.302 416.61 741.302 418.343V440.247H735.328Z" fill="currentColor"/>
<path d="M729.118 440.247C726.653 440.761 724.215 440.965 721.804 440.856C719.42 440.748 717.28 440.233 715.383 439.312C713.514 438.391 712.092 436.955 711.116 435.004C710.331 433.379 709.897 431.74 709.816 430.087C709.762 428.408 709.735 426.498 709.735 424.358V384.168H715.668V424.114C715.668 425.956 715.681 427.5 715.708 428.746C715.763 429.966 716.047 431.049 716.562 431.997C717.537 433.812 719.081 434.896 721.194 435.248C723.334 435.6 725.976 435.519 729.118 435.004V440.247ZM700.348 401.479V396.359H729.118V401.479H700.348Z" fill="currentColor"/>
<path d="M676.189 441.344C673.562 441.344 671.259 440.938 669.281 440.125C667.331 439.312 665.665 438.215 664.283 436.834C662.928 435.452 661.831 433.881 660.991 432.12C660.151 430.332 659.542 428.449 659.163 426.471C658.783 424.466 658.594 422.475 658.594 420.498V396.359H664.608V418.75C664.608 421.161 664.838 423.396 665.299 425.455C665.759 427.514 666.491 429.316 667.493 430.86C668.523 432.377 669.837 433.556 671.435 434.395C673.06 435.235 675.025 435.655 677.327 435.655C679.44 435.655 681.296 435.289 682.895 434.558C684.52 433.826 685.875 432.783 686.958 431.429C688.069 430.047 688.909 428.381 689.478 426.431C690.047 424.453 690.331 422.231 690.331 419.766L694.557 420.701C694.557 425.198 693.772 428.977 692.2 432.038C690.629 435.1 688.462 437.416 685.698 438.987C682.935 440.559 679.765 441.344 676.189 441.344ZM690.941 440.247V429.438H690.331V396.359H696.305V440.247H690.941Z" fill="currentColor"/>
<path d="M606.207 440.246V381.729H612.221L644.446 429.681V381.729H650.46V440.246H644.446L612.221 392.254V440.246H606.207Z" fill="currentColor"/>
</svg>
