<svg width="1000" height="262" viewBox="0 0 1000 262" fill="none" xmlns="http://www.w3.org/2000/svg">
<path fill-rule="evenodd" clip-rule="evenodd" d="M857.33 236.282L857.319 236.272C840.302 219.501 831.89 196.75 831.89 168.277C831.89 150.021 835.543 133.86 842.915 119.853L842.921 119.841C850.522 105.62 860.97 94.5464 874.257 86.6727C887.558 78.7905 902.794 74.8766 919.9 74.8766C944.593 74.8766 964.254 82.8454 978.617 98.9385C992.757 114.545 999.804 135.923 1000 162.809C1000.01 164.144 999.44 165.416 998.452 166.301L986.365 177.115C985.511 177.879 984.405 178.301 983.259 178.301H871.959C871.706 178.301 871.547 178.511 871.567 178.707C873.228 195.664 878.733 208.073 887.826 216.262C896.922 224.453 909.909 228.692 927.088 228.692C936.928 228.692 946.53 227.17 955.903 224.124L955.917 224.12C963.903 221.588 971.498 217.665 978.705 212.334C981.742 210.088 986.347 212.103 986.347 216.11V242.168C986.347 243.819 985.469 245.347 984.05 246.182C976.526 250.607 975.116 251.118 965.506 254.607L965.154 254.734L965.122 254.745C952.457 258.885 939.657 260.959 926.728 260.959C897.57 260.959 874.349 252.808 857.33 236.282ZM952.802 117.555C945.368 108.995 934.977 104.628 921.338 104.628C906.716 104.628 895.332 109.134 886.936 117.984C878.968 126.382 873.862 137.469 871.714 151.379C871.686 151.56 871.826 151.785 872.1 151.785H964.683C964.938 151.785 965.088 151.581 965.075 151.397C964.044 136.696 959.889 125.501 952.821 117.576L952.802 117.555Z" fill="currentColor"/>
<path fill-rule="evenodd" clip-rule="evenodd" d="M835.328 74.5225L842.454 74.0906C846.175 73.8651 848.64 77.884 846.753 81.0989L830.415 108.934C829.653 110.233 828.317 111.059 826.868 111.219C811.676 112.9 800.592 117.717 793.298 125.419C786.022 133.102 782.253 143.937 782.253 158.215V253.066C782.253 255.639 780.167 257.725 777.594 257.725H746.019C743.447 257.725 741.361 255.639 741.361 253.066V82.7696C741.361 80.1967 743.447 78.111 746.019 78.111H776.157C778.73 78.111 780.816 80.1967 780.816 82.7696V86.9478C780.816 86.9823 780.816 87.0623 780.966 87.2124C781.135 87.3832 781.447 87.5794 781.886 87.7075C782.881 87.9972 783.616 87.7336 783.836 87.5107C789.482 81.7971 796.755 79.0661 805.315 77.4961C811.752 76.3156 819.125 75.762 827.269 75.1505C829.871 74.9552 832.551 74.7539 835.304 74.5245L835.328 74.5225Z" fill="currentColor"/>
<path fill-rule="evenodd" clip-rule="evenodd" d="M577.05 233.452L577.038 233.434C571.279 224.921 568.409 215.279 568.409 204.575C568.409 191.289 571.735 180.557 578.633 172.637L578.646 172.622L578.658 172.608C585.782 164.721 597.169 159.189 612.474 155.788L612.481 155.787C627.855 152.424 648.342 150.744 673.881 150.707C673.979 150.707 674.074 150.674 674.145 150.619L684.683 142.561C684.792 142.477 684.842 142.359 684.841 142.252C684.672 129.471 681.842 120.715 676.814 115.477C671.644 110.092 662.88 107.144 649.95 107.144C640.109 107.144 630.258 108.666 620.388 111.721L620.366 111.728L620.344 111.734C611.715 114.199 602.872 118.025 593.814 123.23C590.725 125.005 586.737 122.841 586.737 119.173V95.5562C586.737 94.0403 587.479 92.6306 588.691 91.7591C589.51 91.1697 590.263 90.6203 590.969 90.1054C593.644 88.1533 595.64 86.6975 598.018 85.4411C601.064 83.8311 604.712 82.55 611.283 80.7055C625.101 76.8269 638.352 74.8766 651.028 74.8766C675.279 74.8766 693.655 80.6929 705.706 92.7394C717.774 104.561 723.585 122.955 723.585 147.433V253.066C723.585 255.639 721.499 257.725 718.926 257.725H689.867C687.294 257.725 685.208 255.639 685.208 253.066V245.346L685.208 245.34L685.207 245.336C685.207 245.336 685.204 245.324 685.199 245.312C685.197 245.307 685.194 245.301 685.191 245.295C685.168 245.247 685.113 245.16 684.994 245.045C684.745 244.803 684.316 244.538 683.741 244.343C683.173 244.152 682.573 244.066 682.056 244.092C681.521 244.118 681.229 244.253 681.116 244.337C679.234 245.741 677.191 246.918 675.082 248.097C674.767 248.273 674.45 248.449 674.131 248.627C672.288 249.652 670.374 250.717 668.331 252.007C658.832 258.007 647.522 260.959 634.497 260.959C621.995 260.959 610.762 258.506 600.846 253.548C590.974 248.612 583.029 241.921 577.062 233.469L577.05 233.452ZM614.028 187.786L614.026 187.789C610.476 191.129 608.582 195.903 608.582 202.419C608.582 210.973 611.479 217.814 617.228 223.129C622.958 228.189 631.02 230.849 641.684 230.849C654.061 230.849 664.28 226.521 672.492 217.853C680.702 209.186 684.849 198.227 684.849 184.809V177.647C684.849 177.413 684.659 177.223 684.425 177.223H675.107C657.666 177.223 644.024 178.061 634.13 179.709C624.47 181.359 617.893 184.136 614.028 187.786Z" fill="currentColor"/>
<path fill-rule="evenodd" clip-rule="evenodd" d="M218.965 233.628L218.953 233.611C213.194 225.097 210.323 215.456 210.323 204.752C210.323 191.466 213.649 180.733 220.547 172.813L220.56 172.799L220.573 172.785C227.697 164.898 239.084 159.366 254.389 155.965L254.396 155.963C269.769 152.6 290.256 150.921 315.795 150.884C315.894 150.883 315.988 150.85 316.059 150.796L326.597 142.737C326.706 142.654 326.757 142.536 326.755 142.429C326.586 129.647 323.757 120.892 318.728 115.654C313.559 110.269 304.794 107.32 291.864 107.32C282.024 107.32 272.172 108.843 262.302 111.897L262.28 111.904L262.258 111.911C253.629 114.376 244.786 118.201 235.728 123.407C232.64 125.182 228.652 123.017 228.652 119.35V95.7327C228.652 94.2168 229.393 92.807 230.605 91.9356C231.425 91.3462 232.178 90.7967 232.884 90.2819C235.559 88.3298 237.554 86.874 239.932 85.6176C242.979 84.0076 246.626 82.7265 253.198 80.882C267.015 77.0034 280.266 75.0531 292.943 75.0531C317.193 75.0531 335.569 80.8694 347.621 92.9158C359.688 104.738 365.499 123.131 365.499 147.61V253.243C365.499 255.816 363.414 257.902 360.841 257.902H331.781C329.208 257.902 327.123 255.816 327.123 253.243V245.523L327.122 245.517L327.121 245.512C327.121 245.512 327.118 245.501 327.113 245.488C327.111 245.483 327.109 245.477 327.105 245.471C327.083 245.424 327.028 245.337 326.909 245.221C326.659 244.979 326.231 244.714 325.655 244.52C325.088 244.328 324.488 244.243 323.971 244.268C323.435 244.295 323.143 244.429 323.031 244.513C321.149 245.918 319.106 247.095 316.996 248.274C316.681 248.45 316.365 248.626 316.046 248.803C314.203 249.829 312.289 250.893 310.246 252.184C300.746 258.183 289.437 261.136 276.411 261.136C263.91 261.136 252.677 258.683 242.76 253.725C232.888 248.789 224.943 242.098 218.977 233.645L218.965 233.628ZM255.943 187.963L255.94 187.965C252.391 191.305 250.497 196.08 250.497 202.595C250.497 211.149 253.394 217.991 259.143 223.306C264.873 228.366 272.934 231.025 283.599 231.025C295.976 231.025 306.195 226.697 314.406 218.03C322.617 209.363 326.763 198.403 326.763 184.986V177.823C326.763 177.589 326.574 177.4 326.34 177.4H317.021C299.581 177.4 285.939 178.237 276.044 179.886C266.385 181.536 259.807 184.312 255.943 187.963Z" fill="currentColor"/>
<path fill-rule="evenodd" clip-rule="evenodd" d="M416.522 249.853L416.501 249.84C404.635 242.177 395.402 231.316 388.782 217.342C382.151 203.343 378.875 186.847 378.875 167.918C378.875 148.994 382.15 132.614 388.785 118.848C395.405 104.876 404.637 94.0182 416.501 86.3564C428.389 78.6787 442.337 74.8768 458.26 74.8768C471.755 74.8768 483.858 77.8245 494.511 83.7705C501.719 87.7932 507.713 92.8042 512.462 98.8125C512.614 99.0045 513.043 99.2171 513.676 99.0352C513.959 98.954 514.152 98.8199 514.254 98.7074C514.337 98.6157 514.362 98.5419 514.362 98.4444V4.7837C514.362 2.21083 516.448 0.125116 519.021 0.125116H550.236C552.809 0.125116 554.895 2.21083 554.895 4.7837V253.067C554.895 255.64 552.809 257.725 550.236 257.725H519.74C517.167 257.725 515.081 255.64 515.081 253.067V236.284C515.081 236.191 515.058 236.118 514.969 236.022C514.859 235.904 514.652 235.765 514.35 235.682C513.671 235.496 513.232 235.732 513.089 235.921C508.303 242.269 502.228 247.525 494.894 251.694C484.231 257.89 471.999 260.96 458.26 260.96C442.582 260.96 428.653 257.281 416.544 249.867L416.522 249.853ZM501.924 122.924C493.246 112.647 481.872 107.503 467.604 107.503C453.084 107.503 441.595 112.656 432.924 122.924L432.909 122.942C424.261 132.955 419.767 147.832 419.767 167.918C419.767 188 424.259 203.011 432.924 213.272C441.595 223.54 453.084 228.693 467.604 228.693C481.872 228.693 493.246 223.549 501.924 213.272C510.589 203.011 515.081 188 515.081 167.918C515.081 147.832 510.587 132.955 501.939 122.942L501.924 122.924Z" fill="currentColor"/>
<path fill-rule="evenodd" clip-rule="evenodd" d="M176.114 239.284L176.111 239.287C160.756 251.67 139.499 257.725 112.608 257.725H5.17814C2.60526 257.725 0.519531 255.639 0.519531 253.067V4.78359C0.519531 2.21072 2.60526 0.125 5.17814 0.125H108.296C134.929 0.125 155.832 6.05272 170.715 18.2C185.897 30.1531 193.431 46.9719 193.431 68.3691C193.431 82.4179 189.726 94.6094 182.241 104.839C176.345 112.897 168.74 119.235 159.463 123.852C159.274 123.946 159.038 124.228 159.064 124.761C159.09 125.293 159.35 125.541 159.541 125.612C170.824 129.834 179.956 136.304 186.865 145.042C195.363 155.79 199.54 169.339 199.54 185.528C199.54 208.574 191.787 226.596 176.114 239.284ZM41.1165 110.815H102.546C119.818 110.815 132.383 107.433 140.595 101.021C148.707 94.6866 152.898 85.134 152.898 71.9629C152.898 58.7918 148.707 49.2392 140.595 42.9047C132.383 36.4924 119.818 33.1108 102.546 33.1108H41.1165C40.8826 33.1108 40.6929 33.3004 40.6929 33.5343V110.391C40.6929 110.625 40.8826 110.815 41.1165 110.815ZM41.1165 224.739H108.296C125.675 224.739 138.316 221.213 146.585 214.519C154.769 207.895 159.007 197.887 159.007 184.09C159.007 170.42 154.773 160.503 146.592 153.936C138.323 147.298 125.678 143.801 108.296 143.801H41.1165C40.8826 143.801 40.6929 143.99 40.6929 144.224V224.316C40.6929 224.55 40.8826 224.739 41.1165 224.739Z" fill="currentColor"/>
</svg>
